<?xml version="1.0" encoding="utf-8"?>
<!-- Generator: Adobe Illustrator 26.0.3, SVG Export Plug-In . SVG Version: 6.00 Build 0)  -->
<svg version="1.1" id="Layer_1" xmlns="http://www.w3.org/2000/svg" xmlns:xlink="http://www.w3.org/1999/xlink" x="0px" y="0px"
	 viewBox="0 0 360 90" style="enable-background:new 0 0 360 90;" xml:space="preserve">
<style type="text/css">
	.st0{clip-path:url(#SVGID_00000087393656526068146860000003141238538535389602_);}
	.st1{fill:none;stroke:#000000;}
	.st2{clip-path:url(#SVGID_00000092432543635579501450000002300512879518837655_);}
	.st3{clip-path:url(#SVGID_00000126291991403428815380000014090975961155942551_);}
	.st4{clip-path:url(#SVGID_00000077324617405400907790000009997688866091302815_);}
	.st5{clip-path:url(#SVGID_00000071561448222475889280000009444998682410399676_);}
	.st6{clip-path:url(#SVGID_00000124136387094086634920000015255731339656684715_);}
	.st7{opacity:0.35;}
	.st8{clip-path:url(#SVGID_00000127043870978301218690000004369755764477155748_);}
	.st9{clip-path:url(#SVGID_00000118367776847941436440000017229387584185854113_);}
</style>
<g id="Layer_2_00000040554887351171214390000000794238180692420284_">
	<g>
		<g>
			<g>
				<g>
					<g>
						<g>
							<defs>
								<path id="SVGID_1_" d="M87.6,46c-0.5,28.9-43.8,28.9-44.3,0C43.8,17.1,87.1,17.1,87.6,46z"/>
							</defs>
							<clipPath id="SVGID_00000178187747327802653650000013403249487988095616_">
								<use xlink:href="#SVGID_1_"  style="overflow:visible;"/>
							</clipPath>
							<g style="clip-path:url(#SVGID_00000178187747327802653650000013403249487988095616_);">
								
									<image style="overflow:visible;enable-background:new    ;" width="1024" height="1024" xlink:href="ic6.png"  transform="matrix(4.980469e-02 0 0 4.980469e-02 40 21)">
								</image>
							</g>
						</g>
					</g>
				</g>
			</g>
		</g>
		<g>
			<path id="SVGID_00000026124044239161221080000000378523163960651175_" class="st1" d="M87.6,46c-0.5,28.9-43.8,28.9-44.3,0
				C43.8,17.1,87.1,17.1,87.6,46z"/>
		</g>
	</g>
</g>
<g id="Layer_3">
	<g>
		<g>
			<g>
				<g>
					<g>
						<g>
							<defs>
								<path id="SVGID_00000040558147687909758830000012253228236772967558_" d="M315,46c-0.5,28.9-43.8,28.9-44.3,0
									C271.2,17.1,314.5,17.1,315,46z"/>
							</defs>
							<clipPath id="SVGID_00000055666426768644708230000016386060133676288167_">
								<use xlink:href="#SVGID_00000040558147687909758830000012253228236772967558_"  style="overflow:visible;"/>
							</clipPath>
							<g style="clip-path:url(#SVGID_00000055666426768644708230000016386060133676288167_);">
								
									<image style="overflow:visible;enable-background:new    ;" width="1024" height="1024" xlink:href="ic5.png"  transform="matrix(4.394531e-02 0 0 4.394531e-02 269.8301 23.0001)">
								</image>
							</g>
						</g>
					</g>
				</g>
			</g>
		</g>
		<g>
			<path id="SVGID_00000091730521697696609580000014274809520054058935_" class="st1" d="M315,46c-0.5,28.9-43.8,28.9-44.3,0
				C271.2,17.1,314.5,17.1,315,46z"/>
		</g>
	</g>
</g>
<g id="Layer_4">
	<g>
		<g>
			<g>
				<g>
					<g>
						<g>
							<defs>
								<ellipse id="SVGID_00000080192436412641019600000005803662927847315893_" cx="246.7" cy="45.5" rx="21.4" ry="21.6"/>
							</defs>
							<clipPath id="SVGID_00000103235295655122755170000004580788908874318216_">
								<use xlink:href="#SVGID_00000080192436412641019600000005803662927847315893_"  style="overflow:visible;"/>
							</clipPath>
							
								<g transform="matrix(1 0 0 1 0 1.907349e-06)" style="clip-path:url(#SVGID_00000103235295655122755170000004580788908874318216_);">
								
									<image style="overflow:visible;enable-background:new    ;" width="1024" height="1024" xlink:href="ic2.png"  transform="matrix(3.710938e-02 0 0 3.710938e-02 229.0501 24.9088)">
								</image>
							</g>
						</g>
					</g>
				</g>
			</g>
		</g>
		<g>
			
				<ellipse id="SVGID_00000143614164030262332950000000133130837813248908_" class="st1" cx="246.7" cy="45.5" rx="21.4" ry="21.6"/>
		</g>
	</g>
</g>
<g id="Layer_5">
	<g>
		<g>
			<g>
				<g>
					<g>
						<g>
							<defs>
								<path id="SVGID_00000112632951993332463820000017792302234895974035_" d="M177.1,45c-0.5,27.8-41.8,27.7-42.2,0
									C135.4,17.2,176.6,17.3,177.1,45z"/>
							</defs>
							<clipPath id="SVGID_00000052073182669371763650000001108374920144313276_">
								<use xlink:href="#SVGID_00000112632951993332463820000017792302234895974035_"  style="overflow:visible;"/>
							</clipPath>
							<g style="clip-path:url(#SVGID_00000052073182669371763650000001108374920144313276_);">
								
									<image style="overflow:visible;enable-background:new    ;" width="1024" height="1024" xlink:href="ic3.png"  transform="matrix(4.296875e-02 0 0 4.296875e-02 134.1142 22.0001)">
								</image>
							</g>
						</g>
					</g>
				</g>
			</g>
		</g>
		<g>
			<path id="SVGID_00000166637938700230222090000003885739635506773947_" class="st1" d="M177.1,45c-0.5,27.8-41.8,27.7-42.2,0
				C135.4,17.2,176.6,17.3,177.1,45z"/>
		</g>
	</g>
</g>
<g id="Layer_6">
	<g>
		<g>
			<g>
				<g>
					<g>
						<g>
							<defs>
								<path id="SVGID_00000066511015687926324370000013558593739239241149_" d="M222.6,45c-0.5,28-42.5,28-43,0
									C180.1,17,222.2,17,222.6,45z"/>
							</defs>
							<clipPath id="SVGID_00000065786243978884759150000013498256268284761791_">
								<use xlink:href="#SVGID_00000066511015687926324370000013558593739239241149_"  style="overflow:visible;"/>
							</clipPath>
							<g style="clip-path:url(#SVGID_00000065786243978884759150000013498256268284761791_);">
								
									<image style="overflow:visible;enable-background:new    ;" width="1340" height="1032" xlink:href="ic1.png"  transform="matrix(4.368991e-02 0 0 4.792402e-02 174.4476 21.7852)">
								</image>
							</g>
						</g>
					</g>
				</g>
			</g>
		</g>
		<g>
			<path id="SVGID_00000127038624186433133320000015027359856829844364_" class="st1" d="M222.6,45c-0.5,28-42.5,28-43,0
				C180.1,17,222.2,17,222.6,45z"/>
		</g>
	</g>
</g>
<g id="Layer_7">
	<g>
		<g>
			<g>
				<g>
					<g>
						<g>
							<defs>
								<path id="SVGID_00000018946365363948251190000006116650725998276738_" d="M132.8,45.3c-0.5,28-42.5,28-43,0
									C90.3,17.3,132.3,17.3,132.8,45.3z"/>
							</defs>
							<clipPath id="SVGID_00000115474091963193714420000013399495165686190222_">
								<use xlink:href="#SVGID_00000018946365363948251190000006116650725998276738_"  style="overflow:visible;"/>
							</clipPath>
							<g transform="matrix(1 0 0 1 0 0)" style="clip-path:url(#SVGID_00000115474091963193714420000013399495165686190222_);">
								
									<image style="overflow:visible;enable-background:new    ;" width="1024" height="1024" xlink:href="ic4.png"  transform="matrix(4.872807e-02 0 0 4.828055e-02 87.3338 21.0975)">
								</image>
							</g>
						</g>
					</g>
				</g>
			</g>
		</g>
		<g>
			<path id="SVGID_00000113355042626250756240000005923429177004139183_" class="st1" d="M132.8,45.3c-0.5,28-42.5,28-43,0
				C90.3,17.3,132.3,17.3,132.8,45.3z"/>
		</g>
	</g>
</g>
<g id="Layer_2_00000119825295490697212140000005033429529447760562_">
	<g class="st7">
		<g>
			<g>
				<defs>
					<rect id="SVGID_00000054260477176576176700000005595774872255471488_" x="2" width="178.8" height="90.4"/>
				</defs>
				<clipPath id="SVGID_00000082363972206973367350000016160842361523681978_">
					<use xlink:href="#SVGID_00000054260477176576176700000005595774872255471488_"  style="overflow:visible;"/>
				</clipPath>
				<g style="clip-path:url(#SVGID_00000082363972206973367350000016160842361523681978_);">
					
						<image style="overflow:visible;enable-background:new    ;" width="1024" height="1024" xlink:href="bg.png"  transform="matrix(0.174 0 0 0.1746 2 0)">
					</image>
				</g>
			</g>
		</g>
	</g>
	<g class="st7">
		<g>
			<g>
				<defs>
					<rect id="SVGID_00000137105086691893508480000002120272639488058262_" x="180.8" width="178.2" height="90.4"/>
				</defs>
				<clipPath id="SVGID_00000126302153565400508290000017906142634213832881_">
					<use xlink:href="#SVGID_00000137105086691893508480000002120272639488058262_"  style="overflow:visible;"/>
				</clipPath>
				<g style="clip-path:url(#SVGID_00000126302153565400508290000017906142634213832881_);">
					
						<image style="overflow:visible;enable-background:new    ;" width="1024" height="1024" xlink:href="bg.png"  transform="matrix(0.174 0 0 0.1746 180.7887 -88.4159)">
					</image>
				</g>
			</g>
		</g>
	</g>
</g>
</svg>
